<svg width="27" height="24" viewBox="0 0 27 24" fill="none" xmlns="http://www.w3.org/2000/svg">
<path opacity="0.4984" fill-rule="evenodd" clip-rule="evenodd" d="M21.8465 15.087H5.15336C2.30737 15.087 0 12.5905 0 9.51074C0 6.431 2.30737 3.93481 5.15336 3.93481H21.8465C24.6926 3.93481 27 6.43121 27 9.51074C27 12.5903 24.6926 15.087 21.8465 15.087Z" fill="#25254C"/>
<path fill-rule="evenodd" clip-rule="evenodd" d="M14.087 17.5842V11.4158C14.087 11.1742 13.9555 10.9783 13.7935 10.9783C13.6314 10.9783 13.5 11.1742 13.5 11.4158V17.5842C13.5 17.8258 13.6314 18.0217 13.7935 18.0217C13.9556 18.0217 14.087 17.8258 14.087 17.5842Z" fill="#25254C"/>
<path d="M15.5407 22.7173H10.6638L16.2262 20.6771H9.97852L17.022 18.6086" stroke="#25254C" stroke-linecap="round" stroke-linejoin="round"/>
<path d="M17.2239 17.5213C17.4766 16.0074 18.7694 14.4088 19.3553 13.7486C19.631 13.4381 19.8831 13.1063 20.0901 12.7442C20.7747 11.5478 21.1569 10.1481 21.1291 8.65503C21.0531 4.54884 17.809 1.16159 13.7974 1.00578C9.44786 0.836798 5.86963 4.3941 5.86963 8.80649C5.86963 10.2144 6.23404 11.5353 6.87134 12.6759C7.09367 13.0736 7.36953 13.4367 7.66961 13.7767C8.26655 14.4532 9.52713 16.0285 9.77617 17.5213C9.82424 17.8084 10.0604 18.0217 10.3449 18.0217H16.6552C16.9398 18.0217 17.1759 17.8084 17.2239 17.5213V17.5213Z" stroke="#25254C" stroke-linecap="round" stroke-linejoin="round"/>
<path d="M11.7393 8.92386C11.7393 7.7894 12.6591 6.86963 13.7935 6.86963C14.928 6.86963 15.848 7.7894 15.848 8.92386C15.848 10.0583 14.9284 10.9783 13.7935 10.9783C12.6586 10.9783 11.7393 10.0584 11.7393 8.92386Z" stroke="#25254C" stroke-linecap="round" stroke-linejoin="round"/>
</svg>
