<svg width="29" height="26" viewBox="0 0 29 26" fill="none" xmlns="http://www.w3.org/2000/svg">
<path d="M17.6953 23.0612C17.6015 23.0612 17.5101 23.01 17.4591 22.918C17.3826 22.7798 17.4262 22.602 17.5565 22.5209L20.7397 20.5385C20.8702 20.4574 21.0377 20.5037 21.1143 20.6417C21.1908 20.7799 21.1472 20.9577 21.0169 21.0388L17.8337 23.0212C17.7901 23.0483 17.7424 23.0612 17.6953 23.0612Z" fill="white"/>
<path d="M12.0944 18.5938C12.0032 18.6228 11.8573 18.6711 11.7296 18.6131C11.1002 18.3037 10.4891 18.2166 10.2246 18.1296C9.75942 17.9749 9.30336 17.7718 8.86555 17.5204C7.59772 16.7564 6.53967 15.654 5.79174 14.3292C5.73701 14.2325 5.68229 14.1358 5.62756 14.0295C4.53303 11.989 4.25027 9.61985 4.84314 7.35703C5.42689 5.09421 6.8133 3.20853 8.73785 2.04811L8.74698 2.03844C12.6052 -0.137348 17.4394 1.24549 19.7379 5.19092C20.5588 6.56408 21.0149 8.15966 21.0605 9.78425C21.0696 10.2678 21.024 10.7513 20.9419 11.2154C20.8963 11.4862 20.5588 12.3468 20.5132 13.2365C20.5041 13.4492 20.3946 13.5073 20.1757 13.6717C20.0116 13.7974 19.7014 14.0681 19.7197 13.7877C19.7562 12.9657 20.1575 11.4378 20.2213 11.0704C20.2943 10.6449 20.3308 10.2194 20.3308 9.79391C20.2943 8.30471 19.8747 6.85418 19.1268 5.59706C17.0198 1.99975 12.6235 0.742631 9.09359 2.71535C7.34234 3.7694 6.08362 5.49069 5.54547 7.55043C5.00733 9.61985 5.26272 11.7763 6.26604 13.6426C6.31165 13.7393 6.36637 13.8264 6.4211 13.9134C7.10518 15.1222 8.08114 16.1279 9.2304 16.8338C9.61349 17.0562 10.0239 17.24 10.4435 17.3753C10.7628 17.4817 11.8847 17.8008 12.5505 18.1683C12.7329 18.265 12.7785 18.3327 12.4958 18.4294C12.3681 18.4971 12.213 18.5551 12.0944 18.5938L12.0944 18.5938Z" fill="#25254C"/>
<path d="M3.851 23.735C2.22826 23.735 1.11542 23.2785 0.628192 22.3842C-0.391032 20.5151 1.58074 17.0586 5.77414 13.3639L5.93759 13.5724C1.90849 17.1224 -0.0886671 20.528 0.849588 22.2486C1.51586 23.4714 3.63513 23.7857 6.66416 23.1109C9.78342 22.4161 13.5454 20.7803 17.2571 18.5051C20.9707 16.2285 24.1859 13.5899 26.3104 11.0751C28.375 8.63127 29.1772 6.52876 28.5114 5.30672C27.6177 3.67081 24.1915 3.69768 19.5699 5.37674L19.4869 5.12035C24.3032 3.37051 27.7595 3.38949 28.7327 5.17097C29.4682 6.52083 28.6756 8.68179 26.5009 11.2559C24.3588 13.7915 21.1214 16.4493 17.3851 18.7397C13.6506 21.0291 9.86179 22.6756 6.7167 23.3762C5.63905 23.6162 4.6787 23.735 3.85099 23.735L3.851 23.735Z" fill="#25254C"/>
<path d="M4.91666 22.7633C3.45145 22.7633 2.4463 22.3509 2.00565 21.5431C1.12993 19.95 2.63313 17.1137 6.02705 13.9564L6.19567 14.1602C2.9501 17.1795 1.42931 19.9563 2.22678 21.4069C2.82335 22.5006 4.72502 22.7803 7.44416 22.1755C10.2472 21.5517 13.6318 20.0833 16.9746 18.0409C22.3845 14.7355 26.4954 10.6308 27.2041 7.82696C27.3697 7.17163 27.334 6.61979 27.0978 6.18685C26.3487 4.81268 23.6458 4.73439 19.8674 5.97768L19.7916 5.71878C23.6922 4.4355 26.5062 4.55969 27.3191 6.05119C27.5905 6.54868 27.6349 7.16973 27.4511 7.89712C26.726 10.7659 22.5671 14.9368 17.1023 18.2757C13.7367 20.3322 10.3254 21.8113 7.49667 22.4407C6.52679 22.6565 5.66212 22.7633 4.91666 22.7633V22.7633Z" fill="#25254C"/>
<path d="M6.14911 21.6384C4.86387 21.6385 3.9812 21.2762 3.59256 20.5666C2.89735 19.2988 3.91274 17.1375 6.37842 14.6372L6.55515 14.833C4.21684 17.2043 3.19197 19.2967 3.81365 20.4304C4.33201 21.3768 5.98619 21.618 8.35256 21.0911C10.7997 20.5464 13.7514 19.2639 16.6641 17.4801C19.5766 15.6963 22.1003 13.6255 23.7701 11.6493C25.3844 9.73868 26.0154 8.10004 25.5012 7.15361C24.9177 6.08408 22.9683 5.91684 20.1534 6.69494L20.0889 6.43259C23.0235 5.62149 25.077 5.83482 25.7227 7.01809C26.3041 8.08827 25.6783 9.79718 23.9605 11.8302C22.2732 13.8272 19.7273 15.9171 16.792 17.7148C13.8565 19.5127 10.878 20.8059 8.40507 21.3564C7.55754 21.5451 6.80139 21.6384 6.14911 21.6384L6.14911 21.6384Z" fill="#25254C"/>
<path d="M7.3432 20.5641C6.92487 20.5641 6.5504 20.5198 6.228 20.4284C5.70389 20.2799 5.33264 20.011 5.12461 19.6291C4.56933 18.6113 5.25626 16.9637 7.05893 14.9898L7.2426 15.1783C5.55145 17.0302 4.86016 18.6029 5.34601 19.4934C5.5189 19.8108 5.83783 20.0373 6.29402 20.1666C8.27318 20.727 12.3232 19.4343 16.372 16.9492C18.8769 15.4117 21.0451 13.6316 22.4771 11.9367C23.8591 10.301 24.3995 8.89993 23.9597 8.09265C23.5407 7.32617 22.2792 7.10226 20.4083 7.46192L20.3627 7.19524C22.3479 6.81339 23.7039 7.08409 24.1811 7.9569C25.2141 9.85321 21.8402 13.9061 16.5001 17.1837C13.0449 19.3046 9.57232 20.5641 7.34321 20.5641H7.3432Z" fill="#25254C"/>
<path d="M16.199 22.1141C16.3541 22.1141 16.5183 22.0754 16.6642 21.9884C16.6642 21.9884 16.6733 21.9884 16.6733 21.9787L20.7505 19.4258C21.1518 19.1743 21.2156 18.6812 21.1518 18.188C21.0879 17.6851 21.0879 17.8302 21.0059 16.8728C20.9967 16.7084 20.7961 16.9405 20.7961 16.9405C20.7961 16.9405 20.5589 17.1339 20.4951 17.2016C20.413 17.2887 20.34 17.3564 20.3674 17.5884C20.4221 18.0526 20.4495 18.1106 20.4768 18.4587C20.486 18.5941 20.4768 18.7102 20.3856 18.7779L16.3176 21.3308C16.2173 21.3888 16.1169 21.3308 16.0257 21.2631C15.8707 21.1567 15.9254 21.1664 15.2322 20.7119C15.068 20.6055 14.9221 20.7409 14.7397 20.8183C14.5299 20.915 14.3292 21.002 14.4751 21.089C15.2504 21.5629 15.0954 21.4758 15.4693 21.7273C15.7065 21.911 15.9163 22.1141 16.199 22.1141L16.199 22.1141Z" fill="#25254C"/>
<path d="M2.38018 5.65569C2.52612 5.65569 2.46227 5.34625 2.6082 5.21086C2.77238 5.06581 3.02777 5.11416 3.02777 4.96911C3.02777 4.81438 2.7359 4.88207 2.6082 4.72736C2.47138 4.55329 2.51699 4.26318 2.38018 4.26318H2.3893C2.24336 4.26318 2.30721 4.57263 2.16127 4.70801C1.99709 4.85307 1.7417 4.80471 1.7417 4.94977C1.7417 5.10449 2.03357 5.0368 2.16127 5.19152C2.29808 5.36558 2.2616 5.65569 2.38018 5.65569Z" fill="#25254C"/>
<path d="M0.866503 14.3871C1.06717 14.3871 0.975955 13.9712 1.18574 13.7875C1.40465 13.5941 1.76037 13.6521 1.76037 13.4587C1.76037 13.246 1.36817 13.3427 1.19487 13.1203C1.01244 12.8882 1.06717 12.4917 0.884747 12.4917H0.89387C0.693202 12.4917 0.784417 12.9075 0.574628 13.0913C0.355724 13.2847 0 13.2266 0 13.42C0 13.6328 0.392205 13.5361 0.565506 13.7585C0.747929 13.9906 0.693202 14.3871 0.875625 14.3871" fill="#25254C"/>
<path d="M11.9676 25.1114C12.0679 25.1114 12.0223 24.9083 12.1226 24.8213C12.2321 24.7246 12.4054 24.7536 12.4054 24.6666C12.4054 24.5602 12.2138 24.6085 12.1318 24.5022C12.0406 24.3861 12.0679 24.2024 11.9858 24.2024H11.9949C11.8946 24.2024 11.9402 24.4055 11.8399 24.4925C11.7304 24.5892 11.5571 24.5602 11.5571 24.6472C11.5571 24.7536 11.7487 24.7052 11.8308 24.8116C11.9129 24.9277 11.8855 25.1114 11.9676 25.1114Z" fill="#25254C"/>
<path d="M20.8965 0.375C20.7414 0.375 20.8144 0.694117 20.6502 0.839171C20.486 0.984226 20.2124 0.93587 20.2124 1.0906C20.2124 1.25499 20.5134 1.17763 20.6502 1.35169C20.787 1.52575 20.7414 1.8352 20.8874 1.8352H20.8782C21.0333 1.8352 20.9603 1.51608 21.1245 1.37103C21.2887 1.22597 21.5623 1.27433 21.5623 1.1196C21.5623 0.955212 21.2613 1.03257 21.1245 0.858507C20.9877 0.684445 21.0333 0.375 20.8965 0.375Z" fill="#25254C"/>
<path d="M25.6667 18.1782C25.8492 18.1782 25.7671 17.801 25.9495 17.6366C26.1502 17.4626 26.4694 17.5206 26.4694 17.3369C26.4694 17.1435 26.1137 17.2305 25.9586 17.0371C25.7944 16.8243 25.8492 16.4666 25.6759 16.4666H25.685C25.5026 16.4666 25.5846 16.8437 25.4022 17.0081C25.2016 17.1821 24.8823 17.1241 24.8823 17.3079C24.8823 17.5013 25.238 17.4142 25.3931 17.6076C25.5573 17.8204 25.5026 18.1782 25.6759 18.1782" fill="#25254C"/>
<path d="M12.7962 11.7752C12.3188 11.7752 11.8685 11.5796 11.5287 11.2231C11.1821 10.8593 10.9912 10.372 10.9912 9.85078C10.9912 8.78437 11.8055 7.91675 12.8063 7.91675C13.8122 7.91675 14.6305 8.78003 14.6305 9.8411C14.6305 10.9075 13.8163 11.7751 12.8154 11.7751C12.8091 11.7752 12.8026 11.7752 12.7962 11.7752ZM12.8063 8.40025C12.0569 8.40025 11.4473 9.05096 11.4473 9.85078C11.4473 10.2419 11.5901 10.6072 11.8495 10.8794C12.1067 11.1492 12.4492 11.2941 12.8131 11.2916C13.5648 11.2916 14.1745 10.6409 14.1745 9.8411C14.1745 9.04662 13.5607 8.40025 12.8063 8.40025H12.8063Z" fill="#25254C"/>
<path d="M16.2171 16.495C16.135 16.5336 16.0803 16.5336 16.0164 16.4079L13.3439 11.4858C13.2436 11.3021 13.2983 11.3118 13.4716 11.2054C13.6449 11.099 13.7453 11.0217 13.8365 11.2054L16.509 16.1275C16.6093 16.3112 16.5363 16.3112 16.363 16.4176C16.3083 16.4563 16.2901 16.4659 16.2171 16.495Z" fill="#25254C"/>
<path d="M18.8443 23.8835C18.7502 23.8835 18.6587 23.8321 18.6078 23.7398C18.5315 23.6015 18.5754 23.4237 18.7059 23.3429L20.8585 22.0084C20.9891 21.9276 21.1566 21.9742 21.2328 22.1124C21.3091 22.2508 21.2652 22.4284 21.1347 22.5093L18.9821 23.8438C18.9387 23.8707 18.8912 23.8835 18.8443 23.8835Z" fill="#25254C"/>
<path d="M20.0664 24.7537C19.9721 24.7537 19.8804 24.702 19.8296 24.6094C19.7536 24.4708 19.798 24.2932 19.9287 24.2127L20.9959 23.5552C21.1265 23.4747 21.294 23.5217 21.3699 23.6602C21.4459 23.7987 21.4015 23.9764 21.2708 24.0568L20.2036 24.7144C20.1604 24.741 20.1131 24.7537 20.0664 24.7537H20.0664Z" fill="#25254C"/>
</svg>
