<svg width="32" height="27" viewBox="0 0 32 27" fill="none" xmlns="http://www.w3.org/2000/svg">
<path d="M31.6201 18.2723C31.6201 14.9218 29.3691 11.9316 25.9977 10.4771C25.893 16.9012 19.7934 22.1095 12.27 22.1989C13.9734 25.0777 17.4753 26.9998 21.3991 26.9998C23.2388 26.9998 25.0279 26.5814 26.5998 25.7865L31.5755 26.9617L30.1992 22.7131C31.1301 21.3708 31.6201 19.8432 31.6201 18.2723Z" fill="#5F5F5F"/>
<path d="M24.1474 10.3096C24.1474 4.62476 18.7313 0 12.0737 0C5.41614 0 0 4.62476 0 10.3096C0 12.1623 0.577535 13.9662 1.67422 15.5498L0.0443887 20.581L5.93674 19.1895C7.79142 20.126 9.90398 20.6191 12.0737 20.6191C18.7313 20.6191 24.1474 15.9944 24.1474 10.3096ZM10.221 7.91016H8.36823C8.36823 6.16539 10.0304 4.74609 12.0737 4.74609C14.117 4.74609 15.7792 6.16539 15.7792 7.91016C15.7792 8.79572 15.3401 9.64689 14.5742 10.2451L13.0001 11.4753V12.709H11.1473V10.7786L13.3234 9.07793C13.7122 8.77409 13.9265 8.35943 13.9265 7.91016C13.9265 7.03777 13.0954 6.32813 12.0737 6.32813C11.0521 6.32813 10.221 7.03777 10.221 7.91016ZM11.1473 14.291H13.0001V15.873H11.1473V14.291Z" fill="#5F5F5F"/>
</svg>
