<svg width="34" height="27" viewBox="0 0 34 27" fill="none" xmlns="http://www.w3.org/2000/svg">
<path d="M33.574 13.1734C34.1904 12.6174 34.1308 11.7652 33.4411 11.2704L18.2461 0.364354C17.5564 -0.130385 16.4507 -0.120022 15.7755 0.387718L0.528796 11.8519C-0.146386 12.3596 -0.179524 13.2108 0.455426 13.7521L0.837682 14.0787C1.47186 14.6201 2.49693 14.6846 3.12579 14.2224L4.26524 13.3854V25.6395C4.26524 26.3913 5.00792 27 5.92382 27H11.867C12.7829 27 13.5256 26.3913 13.5256 25.6395V17.0666H21.1062V25.6395C21.093 26.3908 21.7484 26.9995 22.6643 26.9995H28.9626C29.8785 26.9995 30.6212 26.3908 30.6212 25.639V13.5579C30.6212 13.5579 30.9359 13.7841 31.3242 14.0641C31.7117 14.3434 32.5258 14.1194 33.1421 13.5629L33.574 13.1734Z" fill="#5F5F5F"/>
</svg>
